<svg height="512" viewBox="0 0 64 64" width="512" xmlns="http://www.w3.org/2000/svg"><g id="Layer_69" data-name="Layer 69"><path d="m50 3.25h-36a10.76 10.76 0 0 0 -10.75 10.75v36a10.76 10.76 0 0 0 10.75 10.75h36a10.76 10.76 0 0 0 10.75-10.75v-36a10.76 10.76 0 0 0 -10.75-10.75zm-22.2 40.61a3.13 3.13 0 0 1 0 6.25h-10.6a3.06 3.06 0 0 1 -2.2-.93 3.13 3.13 0 0 1 -.9-2.18v-10.58a3.13 3.13 0 0 1 6.25 0v3.28l6-5.7a3.13 3.13 0 0 1 4.31 4.53l-5.61 5.33zm22.2-16.15a3.13 3.13 0 0 1 -6.25 0v-3.28l-6 5.7a3.1 3.1 0 0 1 -2.15.86 3.15 3.15 0 0 1 -2.16-5.39l5.61-5.33h-2.71a3.13 3.13 0 0 1 0-6.25h10.58a3.22 3.22 0 0 1 2.21.93 3.13 3.13 0 0 1 .87 2.23z"/></g></svg>